<mxfile modified="2020-11-21T15:03:50.379Z" host="app.diagrams.net" agent="5.0 (Windows NT 10.0; Win64; x64) AppleWebKit/537.36 (KHTML, like Gecko) Chrome/86.0.4240.198 Safari/537.36" etag="kpQ0pk72wAh-B8EFwjdb" version="13.10.0" type="github">
  <diagram id="SmzbryOwntcVuhQPW6ob" name="portfolio">
    <mxGraphModel dx="1422" dy="762" grid="1" gridSize="10" guides="1" tooltips="1" connect="1" arrows="1" fold="1" page="1" pageScale="1" pageWidth="1169" pageHeight="827" math="0" shadow="0">
      <root>
        <mxCell id="HAgl6iQEYEJf1a9TK48T-0" />
        <mxCell id="HAgl6iQEYEJf1a9TK48T-1" parent="HAgl6iQEYEJf1a9TK48T-0" />
        <mxCell id="5AO4tNxUEHtQYa5cbMNI-0" value="Availability Zone" style="fillColor=none;strokeColor=#147EBA;dashed=1;verticalAlign=top;fontStyle=0;fontColor=#147EBA;rounded=0;" vertex="1" parent="HAgl6iQEYEJf1a9TK48T-1">
          <mxGeometry x="600" y="160" width="400" height="520" as="geometry" />
        </mxCell>
        <mxCell id="5AO4tNxUEHtQYa5cbMNI-1" value="Availability Zone" style="fillColor=none;strokeColor=#147EBA;dashed=1;verticalAlign=top;fontStyle=0;fontColor=#147EBA;rounded=0;" vertex="1" parent="HAgl6iQEYEJf1a9TK48T-1">
          <mxGeometry x="160" y="160" width="400" height="520" as="geometry" />
        </mxCell>
        <mxCell id="5AO4tNxUEHtQYa5cbMNI-2" value="VPC" style="points=[[0,0],[0.25,0],[0.5,0],[0.75,0],[1,0],[1,0.25],[1,0.5],[1,0.75],[1,1],[0.75,1],[0.5,1],[0.25,1],[0,1],[0,0.75],[0,0.5],[0,0.25]];outlineConnect=0;gradientColor=none;html=1;whiteSpace=wrap;fontSize=12;fontStyle=0;shape=mxgraph.aws4.group;grIcon=mxgraph.aws4.group_vpc;strokeColor=#248814;fillColor=none;verticalAlign=top;align=left;spacingLeft=30;fontColor=#AAB7B8;dashed=0;rounded=0;" vertex="1" parent="HAgl6iQEYEJf1a9TK48T-1">
          <mxGeometry x="120" y="120" width="920" height="600" as="geometry" />
        </mxCell>
        <mxCell id="5AO4tNxUEHtQYa5cbMNI-3" value="AWS Cloud" style="points=[[0,0],[0.25,0],[0.5,0],[0.75,0],[1,0],[1,0.25],[1,0.5],[1,0.75],[1,1],[0.75,1],[0.5,1],[0.25,1],[0,1],[0,0.75],[0,0.5],[0,0.25]];outlineConnect=0;gradientColor=none;html=1;whiteSpace=wrap;fontSize=12;fontStyle=0;shape=mxgraph.aws4.group;grIcon=mxgraph.aws4.group_aws_cloud;strokeColor=#232F3E;fillColor=none;verticalAlign=top;align=left;spacingLeft=30;fontColor=#232F3E;dashed=0;rounded=0;" vertex="1" parent="HAgl6iQEYEJf1a9TK48T-1">
          <mxGeometry x="40" y="40" width="1080" height="760" as="geometry" />
        </mxCell>
        <mxCell id="5AO4tNxUEHtQYa5cbMNI-4" value="Region Tokyo" style="points=[[0,0],[0.25,0],[0.5,0],[0.75,0],[1,0],[1,0.25],[1,0.5],[1,0.75],[1,1],[0.75,1],[0.5,1],[0.25,1],[0,1],[0,0.75],[0,0.5],[0,0.25]];outlineConnect=0;gradientColor=none;html=1;whiteSpace=wrap;fontSize=12;fontStyle=0;shape=mxgraph.aws4.group;grIcon=mxgraph.aws4.group_region;strokeColor=#147EBA;fillColor=none;verticalAlign=top;align=left;spacingLeft=30;fontColor=#147EBA;dashed=1;rounded=0;" vertex="1" parent="HAgl6iQEYEJf1a9TK48T-1">
          <mxGeometry x="80" y="80" width="1000" height="680" as="geometry" />
        </mxCell>
        <mxCell id="5AO4tNxUEHtQYa5cbMNI-5" value="Private subnet" style="points=[[0,0],[0.25,0],[0.5,0],[0.75,0],[1,0],[1,0.25],[1,0.5],[1,0.75],[1,1],[0.75,1],[0.5,1],[0.25,1],[0,1],[0,0.75],[0,0.5],[0,0.25]];outlineConnect=0;gradientColor=none;html=1;whiteSpace=wrap;fontSize=12;fontStyle=0;shape=mxgraph.aws4.group;grIcon=mxgraph.aws4.group_security_group;grStroke=0;strokeColor=#147EBA;fillColor=#E6F2F8;verticalAlign=top;align=left;spacingLeft=30;fontColor=#147EBA;dashed=0;rounded=0;" vertex="1" parent="HAgl6iQEYEJf1a9TK48T-1">
          <mxGeometry x="200" y="439" width="760" height="203" as="geometry" />
        </mxCell>
        <mxCell id="5AO4tNxUEHtQYa5cbMNI-6" value="Public subnet" style="points=[[0,0],[0.25,0],[0.5,0],[0.75,0],[1,0],[1,0.25],[1,0.5],[1,0.75],[1,1],[0.75,1],[0.5,1],[0.25,1],[0,1],[0,0.75],[0,0.5],[0,0.25]];outlineConnect=0;html=1;whiteSpace=wrap;fontSize=12;fontStyle=0;shape=mxgraph.aws4.group;grIcon=mxgraph.aws4.group_security_group;grStroke=0;verticalAlign=top;align=left;spacingLeft=30;dashed=1;rounded=0;strokeWidth=5;perimeterSpacing=6;fillColor=#d5e8d4;strokeColor=#82b366;" vertex="1" parent="HAgl6iQEYEJf1a9TK48T-1">
          <mxGeometry x="200" y="200" width="760" height="200" as="geometry" />
        </mxCell>
        <mxCell id="5AO4tNxUEHtQYa5cbMNI-7" value="" style="outlineConnect=0;fontColor=#232F3E;gradientColor=#F78E04;gradientDirection=north;fillColor=#D05C17;strokeColor=#ffffff;dashed=0;verticalLabelPosition=bottom;verticalAlign=top;align=center;html=1;fontSize=12;fontStyle=0;aspect=fixed;shape=mxgraph.aws4.resourceIcon;resIcon=mxgraph.aws4.ec2;rounded=0;" vertex="1" parent="HAgl6iQEYEJf1a9TK48T-1">
          <mxGeometry x="321" y="261" width="78" height="78" as="geometry" />
        </mxCell>
        <mxCell id="5AO4tNxUEHtQYa5cbMNI-8" value="" style="outlineConnect=0;fontColor=#232F3E;gradientColor=#4D72F3;gradientDirection=north;fillColor=#3334B9;strokeColor=#ffffff;dashed=0;verticalLabelPosition=bottom;verticalAlign=top;align=center;html=1;fontSize=12;fontStyle=0;aspect=fixed;shape=mxgraph.aws4.resourceIcon;resIcon=mxgraph.aws4.database;rounded=0;" vertex="1" parent="HAgl6iQEYEJf1a9TK48T-1">
          <mxGeometry x="740" y="502.5" width="78" height="78" as="geometry" />
        </mxCell>
        <mxCell id="5AO4tNxUEHtQYa5cbMNI-9" value="" style="outlineConnect=0;fontColor=#232F3E;gradientColor=#4D72F3;gradientDirection=north;fillColor=#3334B9;strokeColor=#ffffff;dashed=0;verticalLabelPosition=bottom;verticalAlign=top;align=center;html=1;fontSize=12;fontStyle=0;aspect=fixed;shape=mxgraph.aws4.resourceIcon;resIcon=mxgraph.aws4.database;rounded=0;" vertex="1" parent="HAgl6iQEYEJf1a9TK48T-1">
          <mxGeometry x="317" y="502.5" width="78" height="78" as="geometry" />
        </mxCell>
        <mxCell id="5AO4tNxUEHtQYa5cbMNI-10" value="" style="outlineConnect=0;fontColor=#232F3E;gradientColor=#F78E04;gradientDirection=north;fillColor=#D05C17;strokeColor=#ffffff;dashed=0;verticalLabelPosition=bottom;verticalAlign=top;align=center;html=1;fontSize=12;fontStyle=0;aspect=fixed;shape=mxgraph.aws4.resourceIcon;resIcon=mxgraph.aws4.ec2;rounded=0;" vertex="1" parent="HAgl6iQEYEJf1a9TK48T-1">
          <mxGeometry x="740" y="261" width="78" height="78" as="geometry" />
        </mxCell>
      </root>
    </mxGraphModel>
  </diagram>
</mxfile>
